PathFileType	4	(X/Y/Z)	16_2_44_p0_0-316_filt_butterworth.trc
DataRate	CameraRate	NumFrames	NumMarkers	Units	OrigDataRate	OrigDataStartFrame	OrigNumFrames
59.0	59.0	4	27	m	59.0	0	316
Frame#	Time	RHip			RKnee			RAnkle			RBigToe			RSmallToe			RHeel			LHip			LKnee			LAnkle			LBigToe			LSmallToe			LHeel			Neck			Head			Nose			RShoulder			RElbow			RWrist			RThumb			RIndex			RPinky			LShoulder			LElbow			LWrist			LThumb			LIndex			LPinky			
		X1	Y1	Z1	X2	Y2	Z2	X3	Y3	Z3	X4	Y4	Z4	X5	Y5	Z5	X6	Y6	Z6	X7	Y7	Z7	X8	Y8	Z8	X9	Y9	Z9	X10	Y10	Z10	X11	Y11	Z11	X12	Y12	Z12	X13	Y13	Z13	X14	Y14	Z14	X15	Y15	Z15	X16	Y16	Z16	X17	Y17	Z17	X18	Y18	Z18	X19	Y19	Z19	X20	Y20	Z20	X21	Y21	Z21	X22	Y22	Z22	X23	Y23	Z23	X24	Y24	Z24	X25	Y25	Z25	X26	Y26	Z26	X27	Y27	Z27	
0	0.0	0.2800471914087438	0.8546142227822324	0.6276806990980993	0.29640865154425067	0.4305235157345894	0.6741583501093854	0.29333430085474543	0.009735700337526063	0.6912992403341779	0.24056728919847709	-0.030717771594555177	0.5207744787174905	0.3177918457041918	-0.025604378327293814	0.5213711137207868	0.2534340461979331	-0.07792707650656584	0.7958710107911013	0.06215478466850301	0.8295762787589933	0.6711530951365783	0.06535722217003573	0.42497924670407167	0.6767022976453658	0.08791778975990514	0.03658693062927562	0.6988304773380459	0.06805716551675045	-0.0046257273697681844	0.49681844535218395	0.016960572039814867	-0.007116961297134412	0.545117294163199	0.10787894960366946	-0.053350065248544624	0.7897306370756072	0.17128475079174021	1.4368361401401348	0.6277248799060153	0.16262565559592895	1.6901593032553013	0.5837848674796943	0.14453442980796594	1.5547703057454032	0.5157575083014907	0.3495700346569955	1.3510713828332201	0.6359003402255611	0.3447957911251019	1.072169057098261	0.5661547952241216	0.21019014759967772	0.8941593613674063	0.42968765347243837	0.18900176851021533	0.7935830615711814	0.3888558016596005	0.17848469649094684	0.7698908224081785	0.40986365821222026	0.17497861662847913	0.7550503170143879	0.4402673807676978	0.009481535085351152	1.360401845120478	0.6629334540091165	-0.02732687398377254	1.0912823793432282	0.558911247180814	0.09646160966291752	0.9095947379729983	0.4281272048188759	0.20588134621641194	0.847164292504174	0.3792945852583316	0.20489341377602555	0.8294165178995715	0.3664953009946161	0.12251570276902113	0.7809184233236511	0.3562779017285891	
1	0.0169491525423728	0.2799949025610717	0.8543763512507114	0.6275701123260672	0.2963642573148968	0.4308623499937477	0.673486186775843	0.29325106182244126	0.00722986099481937	0.690904699590755	0.24055022121621938	-0.03079863126619418	0.5206700251304462	0.31951841025717376	-0.026881229721189913	0.5258158184974234	0.25443389863193777	-0.07978680369423129	0.7977109236948716	0.05933063036062535	0.8315433099922074	0.6649227452153517	0.06507581769809949	0.427549281635412	0.6759806845389217	0.08860393481085242	0.03591445088054204	0.6988956140071235	0.06816115941857324	0.0001593209975100443	0.49635295927926737	0.016847595668287998	0.0007341071906126206	0.5447443956899304	0.10856027642482563	-0.05530715275035238	0.7924735524051095	0.17129294232264441	1.4368077338999021	0.6277334912519492	0.16463742339078405	1.68969961934964	0.5785026539472515	0.1445251693463256	1.5547359957486993	0.5157441265184639	0.3496441748824789	1.3499408026779158	0.635712546096515	0.345196120478965	1.0734990977337249	0.5637920864633902	0.20976768842226576	0.8937425547787163	0.42758418072127713	0.18237784735792453	0.7789785599950069	0.4053549558468729	0.17592746459523848	0.7585807218310519	0.4234089762882167	0.17543666796584415	0.7539325519690859	0.43915061875216865	0.009599042128581278	1.359694484612113	0.6631962424282849	-0.02775602595130663	1.0898610379189235	0.5567093723252904	0.09536642326880237	0.9078429096479115	0.4290648037390283	0.20545693367260617	0.845259987137728	0.37981174881408025	0.20254182694930678	0.8243656706596122	0.3727502884920927	0.12168883124400534	0.778094531902889	0.3636162432823391	
2	0.0338983050847457	0.27995302323253723	0.8541080263740364	0.6274810335678972	0.2963233899738414	0.43088616933454343	0.6729353859870038	0.2931018879836382	0.004984077797684852	0.6908765790780991	0.24054771291925625	-0.030843972664461244	0.5205819899517041	0.3208383523707762	-0.027749494740313387	0.52906756918241	0.2552166753653638	-0.08126198421673175	0.7989944547981125	0.05713451073566	0.8330893393456968	0.6599714693357157	0.06486685765033354	0.42975114448691454	0.6753801023288044	0.0891863946051965	0.035207819333808454	0.6989814770668131	0.06832684221303392	0.0026344721793360518	0.49618109906648705	0.016854584767848603	0.005676651025346702	0.544478620350378	0.10907264187668321	-0.057068974650806584	0.7946166752337351	0.17130374929777356	1.4367904215980503	0.6277166452728915	0.16583304263827287	1.6894729136670152	0.5748540365017787	0.14451971782100875	1.5547138662401658	0.5157390374243136	0.3496976094083504	1.348593710184947	0.6354693510126784	0.34530111180476936	1.0745656735362294	0.5627993929726489	0.20985957908395889	0.8918265132445514	0.42859499884822794	0.17771964327648027	0.768907281516186	0.415899219388174	0.17319526400475999	0.7514154041979269	0.4316604772533531	0.17515899048481476	0.7528311917274602	0.43890883755690535	0.009655594946535262	1.359458090822397	0.6633078732051195	-0.02778118703263209	1.0887011928327628	0.5564617413147952	0.09425178409685916	0.9056185111596621	0.4315914622572695	0.20527009735040505	0.8440088517721147	0.37985075489715747	0.20107423107471845	0.8209357001026429	0.37659314440824454	0.12135329911662864	0.7758079582111694	0.3693829938623291	
3	0.0508474576271186	0.2799208737117201	0.8538152055634186	0.6274115281611259	0.2962873450198872	0.430632490416144	0.6724990548245334	0.2928953449519451	0.002986167257184591	0.6911753129156551	0.24055665385442127	-0.030858095429203567	0.5205108306679611	0.32180222317573215	-0.028289196251121966	0.5313093298483753	0.2558036272793378	-0.08238591926719167	0.7997824199993591	0.055512136774538604	0.8342510592004627	0.6561910855887775	0.06472362526755918	0.4316110452967006	0.6748912209835357	0.08967259410472243	0.03447579819725599	0.6990853528535819	0.06853356113243209	0.003299529523790465	0.49623266965687163	0.016952042416841267	0.008219999574870088	0.5443161506934192	0.10943179112043348	-0.058642548165464506	0.7962045287974808	0.1713156792283325	1.4367816923248697	0.6276826826698055	0.16637939073356112	1.6894344144757576	0.5725642965468815	0.14451747452047298	1.5547022517608922	0.5157377294063799	0.3497315717457346	1.3471968323146775	0.6352075121348091	0.34518527891952333	1.0753873297514371	0.5628549373436819	0.2103545925606115	0.8888757643594578	0.43188868173364536	0.1746811452051062	0.7625692973820649	0.42186906287085957	0.17046271010475808	0.7475298960070486	0.43590644786363036	0.17435020036693313	0.7517905457192398	0.43936125485864	0.009663441442078874	1.3596036065990091	0.6632971881273688	-0.027495529333654282	1.0878050246556852	0.5577233744438059	0.09314862372375513	0.9030899237605323	0.43532239869335887	0.20524994819327105	0.8433051512842666	0.379566501449483	0.20031484125072613	0.8188967345604207	0.378523946295817	0.1213958457323149	0.7740159661415096	0.3737520135632172	
